<!--?xml version="1.0" standalone="no"?-->              <svg id="sw-js-blob-svg" viewBox="0 0 100 100" xmlns="http://www.w3.org/2000/svg" version="1.1">                    <defs>                         <linearGradient id="sw-gradient" x1="0" x2="1" y1="1" y2="0">                            <stop id="stop1" stop-color="rgba(249, 232, 16, 1)" offset="0%"></stop>                            <stop id="stop2" stop-color="rgba(251, 168, 31, 1)" offset="100%"></stop>                        </linearGradient>                    </defs>                <path fill="rgba(249, 232, 16, 1)" d="M18.6,-34.1C23.1,-29.6,25.2,-22.7,28,-16.6C30.8,-10.5,34.3,-5.2,36.4,1.2C38.5,7.7,39.2,15.4,36.6,21.8C34.1,28.3,28.2,33.5,21.6,37.2C14.9,40.9,7.5,43,0.2,42.6C-7,42.2,-14.1,39.4,-18.3,34.3C-22.5,29.3,-24,22,-27.6,15.9C-31.2,9.8,-37,4.9,-39.4,-1.4C-41.8,-7.7,-40.8,-15.3,-36.8,-20.7C-32.7,-26.1,-25.7,-29.2,-19,-32.5C-12.4,-35.8,-6.2,-39.3,0.4,-40C7,-40.7,14,-38.6,18.6,-34.1Z" width="100%" height="100%" transform="translate(50 50)" stroke-width="0" style="transition: all 0.3s ease 0s;" stroke="rgba(248, 117, 55, 1)"></path>              </svg>